<svg xmlns:x="http://ns.adobe.com/Extensibility/1.0/" xmlns:i="http://ns.adobe.com/AdobeIllustrator/10.0/" xmlns:graph="http://ns.adobe.com/Graphs/1.0/" xmlns="http://www.w3.org/2000/svg" xmlns:xlink="http://www.w3.org/1999/xlink" version="1.1" x="0px" y="0px" viewBox="0 0 48 60" enable-background="new 0 0 48 48" xml:space="preserve"><metadata><sfw xmlns="http://ns.adobe.com/SaveForWeb/1.0/"><slices/><sliceSourceBounds x="-8046" y="-224" width="100" height="100" bottomLeftOrigin="true"/></sfw></metadata><g><path d="M38,11H26.01c-1,0-1.973-0.298-2.779-0.837c-0.128-0.094-0.258-0.188-0.428-0.331l-4.271-3.22   c-0.159-0.137-0.33-0.264-0.535-0.412C16.826,5.415,15.468,5,14.07,5H10c-3.86,0-7,3.14-7,7v6v18c0,3.86,3.14,7,7,7h28   c3.86,0,7-3.14,7-7V18.099c0.003-0.034,0.02-0.064,0.02-0.099c0-0.074-0.008-0.146-0.023-0.215C44.882,14.024,41.788,11,38,11z    M5,12c0-2.757,2.243-5,5-5h4.07c1,0,1.973,0.298,2.779,0.837c0.128,0.094,0.258,0.188,0.428,0.331l4.271,3.22   c0.16,0.137,0.331,0.264,0.535,0.412c1.171,0.785,2.529,1.2,3.927,1.2H38c2.415,0,4.435,1.721,4.899,4H5V12z M43,36   c0,2.757-2.243,5-5,5H10c-2.757,0-5-2.243-5-5V19h38V36z"/><path d="M20.981,37c0.583,0,1.188-0.178,1.796-0.529l6.792-3.92c1.083-0.625,1.704-1.554,1.704-2.551s-0.621-1.926-1.704-2.551   l-6.792-3.92C22.168,23.178,21.564,23,20.981,23c-1.304,0-2.619,0.952-2.619,3.078v7.844C18.362,36.048,19.677,37,20.981,37z    M20.362,26.078c0-0.403,0.081-1.078,0.619-1.078c0.157,0,0.422,0.045,0.796,0.262l6.792,3.92c0.44,0.254,0.704,0.56,0.704,0.818   s-0.263,0.564-0.704,0.818l-6.792,3.92C21.403,34.955,21.138,35,20.981,35c-0.539,0-0.619-0.675-0.619-1.078V26.078z"/></g></svg>