<svg xmlns="http://www.w3.org/2000/svg" viewBox="0 0 32 40" x="0px" y="0px"><g><path d="M25.729,20.417a7.084,7.084,0,0,0-4.555-3.673,6.4,6.4,0,0,0,1.264-3.814V11.571a6.438,6.438,0,0,0-12.876,0V12.93a6.4,6.4,0,0,0,1.264,3.814,7.084,7.084,0,0,0-4.555,3.673,4,4,0,0,0-.05,3.5,3.957,3.957,0,0,0,2.69,2.191A30.939,30.939,0,0,0,16,26.866a30.939,30.939,0,0,0,7.089-.757,3.957,3.957,0,0,0,2.69-2.191A4,4,0,0,0,25.729,20.417ZM11.562,11.571a4.438,4.438,0,0,1,8.876,0V12.93a4.438,4.438,0,0,1-8.876,0Zm12.4,11.5a1.97,1.97,0,0,1-1.338,1.091,28.906,28.906,0,0,1-6.628.7,28.906,28.906,0,0,1-6.628-.7,1.97,1.97,0,0,1-1.338-1.091,2.007,2.007,0,0,1,.025-1.76,5.418,5.418,0,0,1,4.579-2.9,6.378,6.378,0,0,0,6.724,0,5.417,5.417,0,0,1,4.579,2.9A2,2,0,0,1,23.966,23.072Z"/></g><text x="0" y="47" fill="#000000" font-size="5px" font-weight="bold" font-family="'Helvetica Neue', Helvetica, Arial-Unicode, Arial, Sans-serif">Created by The Icon Z</text><text x="0" y="52" fill="#000000" font-size="5px" font-weight="bold" font-family="'Helvetica Neue', Helvetica, Arial-Unicode, Arial, Sans-serif">from the Noun Project</text></svg>